HIERARCHY
ROOT hip
{
	OFFSET 0.000000 0.000000 0.000000 
	CHANNELS 6 Xposition Yposition Zposition Xrotation Zrotation Yrotation
	JOINT abdomen
	{
		OFFSET 0.000000 3.402643 0.000000 
		CHANNELS 3 Xrotation Zrotation Yrotation
		JOINT chest
		{
			OFFSET 0.000000 8.438565 -0.680529 
			CHANNELS 3 Xrotation Zrotation Yrotation
			JOINT neck
			{
				OFFSET 0.000000 10.207942 -0.272212 
				CHANNELS 3 Xrotation Zrotation Yrotation
				JOINT head
				{
					OFFSET 0.000000 3.130431 0.000000 
					CHANNELS 3 Xrotation Zrotation Yrotation
					End Site
					{
						OFFSET 0.000000 3.130435 0.000000 
					}
				}
			}
			JOINT lCollar
			{
				OFFSET 3.470700 6.669187 -0.816635 
				CHANNELS 3 Yrotation Zrotation Xrotation
				JOINT lShldr
				{
					OFFSET 3.198488 0.000000 0.000000 
					CHANNELS 3 Zrotation Yrotation Xrotation
					JOINT lForeArm
					{
						OFFSET 10.139888 0.000000 0.000000 
						CHANNELS 3 Yrotation Zrotation Xrotation
						JOINT lHand
						{
							OFFSET 8.370511 0.000000 0.000000 
							CHANNELS 3 Zrotation Yrotation Xrotation
							End Site
							{
								OFFSET 4.083176 0.000000 0.000000 
							}
						}
					}
				}
			}
			JOINT rCollar
			{
				OFFSET -3.470700 6.669187 -0.816635 
				CHANNELS 3 Yrotation Zrotation Xrotation
				JOINT rShldr
				{
					OFFSET -3.198488 0.000000 0.000000 
					CHANNELS 3 Zrotation Yrotation Xrotation
					JOINT rForeArm
					{
						OFFSET -10.139888 0.000000 0.000000 
						CHANNELS 3 Yrotation Zrotation Xrotation
						JOINT rHand
						{
							OFFSET -8.370511 0.000000 0.000000 
							CHANNELS 3 Zrotation Yrotation Xrotation
							End Site
							{
								OFFSET -4.083176 0.000000 0.000000 
							}
						}
					}
				}
			}
		}
	}
	JOINT lThigh
	{
		OFFSET 5.308129 -1.633274 1.361059 
		CHANNELS 3 Xrotation Zrotation Yrotation
		JOINT lShin
		{
			OFFSET -2.041588 -20.007561 0.000000 
			CHANNELS 3 Xrotation Zrotation Yrotation
			JOINT lFoot
			{
				OFFSET 0.000000 -19.190928 -1.224953 
				CHANNELS 3 Xrotation Yrotation Zrotation
				End Site
				{
					OFFSET 0.000000 -2.449906 4.627600 
				}
			}
		}
	}
	JOINT rThigh
	{
		OFFSET -5.308129 -1.633274 1.361059 
		CHANNELS 3 Xrotation Zrotation Yrotation
		JOINT rShin
		{
			OFFSET 2.041588 -20.007561 0.000000 
			CHANNELS 3 Xrotation Zrotation Yrotation
			JOINT rFoot
			{
				OFFSET 0.000000 -19.190928 -1.224953 
				CHANNELS 3 Xrotation Yrotation Zrotation
				End Site
				{
					OFFSET 0.000000 -2.449906 4.627600 
				}
			}
		}
	}
}
MOTION
Frames: 14
Frame Time: 0.016667
-8.983231 52.804287 15.991014 19.429424 -24.614876 50.646294 49.380901 -17.729393 -11.086411 4.929406 -6.758290 10.247618 -20.501339 -2.105214 0.773195 -4.083054 1.950898 -47.399353 -2.850598 -10.379165 -0.538280 -76.506714 -31.318996 45.000000 -71.821609 2.648214 -1.361319 -35.610889 12.238396 44.643085 30.111780 -29.037056 1.648572 90.000000 53.286678 45.000000 76.979324 5.000000 2.616650 50.344753 -24.908855 12.458361 -54.622711 2.338849 -39.994274 9.603249 -9.193750 -2.021038 -0.422499 -20.045628 -14.112594 -2.980168 6.007899 21.718487 3.580075 7.861243 0.853540 42.938389 4.145671 22.928333 
-8.868722 52.861519 15.902957 18.850658 -23.738466 49.814579 49.019211 -17.760302 -10.670616 4.857388 -6.818880 9.982947 -20.717159 -2.121594 0.795413 -4.292415 2.074703 -47.110538 -3.017747 -10.496191 -0.546086 -76.329330 -31.290989 45.000000 -71.450134 3.704253 -1.745357 -35.646790 12.136957 44.316429 30.105415 -28.842089 1.633758 90.000000 53.330914 45.000000 77.391960 5.000000 2.600239 50.297489 -24.999308 12.392643 -53.569729 2.620341 -39.991661 10.037240 -9.246248 -2.114324 -0.151103 -19.241459 -13.575690 -2.092400 5.762917 22.083044 4.008254 8.112507 0.922997 42.989395 3.853197 22.866177 
-8.751703 52.918472 15.796196 18.281900 -22.854906 48.913734 48.632092 -17.754412 -10.256879 4.777603 -6.840338 9.727907 -20.932907 -2.158748 0.810902 -4.496955 2.155645 -46.751896 -3.157146 -10.583422 -0.560205 -76.181274 -31.268839 45.000000 -71.130791 4.730071 -2.127481 -35.666000 12.016307 43.972878 30.148251 -28.656864 1.624171 90.000000 53.281086 45.000000 77.914108 5.000000 2.563177 50.211254 -25.077589 12.316394 -52.515247 2.932923 -39.995518 10.471941 -9.320489 -2.211129 0.126957 -18.394129 -12.952694 -1.230841 5.544798 22.256113 4.553632 8.324719 1.006489 43.025810 3.516420 22.726238 
-8.624654 52.974304 15.614647 17.744476 -21.934334 47.786179 48.144012 -17.572004 -9.783474 4.673445 -6.754275 9.521358 -21.130882 -2.260554 0.855904 -4.702399 2.072194 -46.122749 -3.176385 -10.554163 -0.558695 -76.170288 -31.258972 45.000000 -71.072983 5.000000 -2.445596 -35.658203 11.826552 43.622925 30.329731 -28.530127 1.612937 90.000000 52.881290 45.000000 78.844971 5.000000 2.459174 49.977364 -25.124693 12.156407 -51.451248 3.195761 -39.990391 10.898119 -9.413448 -2.326634 0.573088 -17.478025 -12.032609 -0.381413 5.320716 21.799414 5.444670 8.465933 1.176910 42.845547 3.093054 22.345860 
-8.497600 53.030140 15.433091 17.186186 -21.030836 46.659882 47.660313 -17.397514 -9.309002 4.559351 -6.677979 9.305113 -21.338911 -2.372012 0.902762 -4.916929 1.992877 -45.494068 -3.195722 -10.534656 -0.557688 -76.163216 -31.239311 45.000000 -71.010353 5.000000 -2.761923 -35.636646 11.636505 43.269241 30.521004 -28.403395 1.606378 90.000000 52.471184 43.876781 79.789574 5.000000 2.333169 49.733143 -25.171366 12.001102 -50.385475 3.479759 -39.987446 11.327332 -9.497848 -2.453319 0.983415 -16.542631 -11.119081 0.456834 5.114058 21.309277 6.380587 8.590940 1.354583 42.657059 2.767585 21.989830 
-8.340386 53.082626 15.190133 16.605764 -20.133404 45.134304 47.115860 -17.152784 -8.713102 4.509796 -6.523732 9.097455 -21.666199 -2.517684 0.984004 -5.194617 1.914096 -44.562428 -3.134934 -10.496191 -0.546086 -76.128716 -31.199652 45.000000 -71.189995 5.000000 -3.029593 -35.516075 11.290234 43.003326 30.588125 -28.364401 1.604359 90.000000 51.853447 43.088734 80.905296 5.000000 2.122017 49.618702 -25.142021 11.912660 -49.313778 3.819920 -39.992844 11.877913 -9.584761 -2.548001 1.443834 -15.190248 -10.135299 1.355657 4.861187 20.527124 7.448627 8.611282 1.514553 42.287029 2.319645 21.504543 
-8.175624 53.134262 14.931822 16.006586 -19.249382 43.513710 46.559856 -16.860641 -8.095351 4.480028 -6.359675 8.889842 -22.023510 -2.682656 1.068601 -5.489428 1.840710 -43.553455 -3.056430 -10.457183 -0.542298 -76.089890 -31.138809 45.000000 -71.425743 5.000000 -3.275041 -35.369572 10.894666 42.742577 30.636024 -28.335152 1.602842 90.000000 51.183311 42.410267 82.066071 5.000000 1.880719 49.524414 -25.079451 11.845346 -48.247448 4.192392 -39.992329 12.437394 -9.684560 -2.634654 1.910601 -13.737712 -9.148024 2.250698 4.615218 19.642723 8.579267 8.573052 1.708838 41.930092 1.877746 21.004826 
-7.991329 53.185913 14.646723 15.415805 -18.402346 41.657017 45.964371 -16.570343 -7.440219 4.395440 -6.195046 8.740583 -22.350033 -2.802284 1.126158 -5.784007 1.810044 -42.418610 -3.056147 -10.427925 -0.540792 -75.936806 -30.962973 45.000000 -71.763695 5.000000 -3.510813 -35.193535 10.583865 42.624012 30.670477 -28.188919 1.590647 90.000000 50.433319 41.856606 83.193047 5.000000 1.637890 49.538082 -25.043116 11.679981 -47.223484 4.591667 -39.992767 13.062703 -9.753056 -2.766821 2.298249 -12.100702 -8.295797 3.147064 4.273021 18.746296 9.673341 8.550488 1.879559 41.286152 1.292201 20.460211 
-7.777717 53.237560 14.321432 14.840094 -17.618664 39.473721 45.329941 -16.257524 -6.790515 4.235896 -6.029815 8.641959 -22.616293 -2.855801 1.163845 -6.060800 1.833149 -41.089825 -3.202820 -10.447429 -0.541796 -75.618607 -30.587164 45.000000 -72.242050 5.000000 -3.733012 -34.969574 10.400312 42.722687 30.708374 -27.837959 1.567897 90.000000 49.559822 41.472645 84.264839 5.000000 1.406044 49.701473 -25.049452 11.362578 -46.266502 5.070084 -39.992470 13.771079 -9.828779 -2.940862 2.485756 -10.242845 -7.609610 4.050052 3.797735 17.793419 10.690192 8.524861 2.040921 40.235065 0.578932 19.815228 
-7.564113 53.289207 13.996150 14.252294 -16.848703 37.288387 44.710693 -15.944784 -6.136073 4.066408 -5.854761 8.561825 -22.891695 -2.901131 1.190921 -6.333899 1.862182 -39.761314 -3.339633 -10.457183 -0.542299 -75.309074 -30.219076 45.000000 -72.728104 5.000000 -3.932514 -34.755016 10.217241 42.811092 30.732334 -27.491983 1.533245 90.000000 48.685928 41.099445 85.327469 5.000000 1.174350 49.879105 -25.048994 11.035412 -45.326176 5.531145 -39.994350 14.517231 -9.889687 -3.078780 2.734393 -8.407678 -6.943112 4.943867 3.337729 16.822800 11.716124 8.482640 2.211413 39.172455 -0.131365 19.142876 
-7.328169 53.339439 13.654140 13.715028 -15.990482 34.889759 44.313953 -15.643514 -5.693531 3.921129 -5.660519 8.452611 -23.204483 -2.890008 1.199102 -6.568179 1.897056 -38.159252 -3.487341 -10.398075 -0.550635 -74.807350 -29.861048 45.000000 -73.325508 5.000000 -4.025389 -34.634220 10.060997 42.742161 30.573637 -27.082497 1.507585 90.000000 47.944183 41.002007 86.272667 5.000000 0.935598 49.779858 -24.862278 10.991785 -44.302654 5.959086 -39.989017 15.210938 -9.759784 -3.209169 2.939388 -7.118805 -6.555627 5.870512 2.654833 15.627808 12.687881 8.238130 2.308654 37.617096 -1.027359 18.222160 
-7.092233 53.389668 13.312137 13.160183 -15.147017 32.488342 43.931477 -15.350896 -5.259706 3.776517 -5.456531 8.343450 -23.527031 -2.878885 1.207284 -6.788013 1.937956 -36.557468 -3.623487 -10.339540 -0.547611 -74.313629 -29.500959 45.000000 -73.923706 5.000000 -4.098686 -34.521839 9.906190 42.663216 30.424685 -26.663256 1.481467 90.000000 47.191261 40.914715 87.226128 5.000000 0.703039 49.682140 -24.674055 10.933835 -43.256142 6.380167 -39.991741 15.908272 -9.619061 -3.289693 3.082632 -5.832067 -6.177122 6.787085 1.982560 14.429470 13.639758 8.015182 2.390842 36.141850 -1.761152 17.325411 
-6.830326 53.418961 12.965938 12.632015 -14.332160 29.926439 43.513901 -15.066116 -4.880432 3.658304 -5.262086 8.283086 -23.758047 -2.765980 1.169996 -6.939936 2.022154 -34.760860 -3.778601 -10.222486 -0.539829 -73.746735 -29.150045 44.511242 -74.433090 5.000000 -4.135554 -34.433929 9.776527 42.601646 30.264585 -26.185511 1.452370 90.000000 46.451069 40.672302 88.198509 5.000000 0.469087 49.620731 -24.412762 10.703986 -42.169765 6.889161 -39.988140 16.443726 -9.438707 -3.341490 3.286920 -4.654962 -5.919844 7.633934 1.230922 13.281233 14.567964 7.816901 2.470213 34.617035 -2.781671 16.226707 
-6.551119 53.434277 12.616958 12.113405 -13.548063 27.252489 43.095463 -14.786965 -4.534234 3.549781 -5.067636 8.232553 -23.927574 -2.570590 1.091113 -7.060959 2.150156 -32.838520 -3.933358 -10.066425 -0.531788 -73.128311 -28.794001 42.834911 -74.889397 5.000000 -4.150070 -34.358788 9.647596 42.543335 30.093451 -25.649261 1.416052 90.000000 45.702091 40.348740 89.179565 5.000000 0.241011 49.584850 -24.129099 10.372051 -41.041084 7.423987 -39.185745 16.897079 -9.205477 -3.328598 3.429622 -3.530790 -5.760670 8.429705 0.392129 12.202579 15.458488 7.690543 2.521586 33.022030 -4.028909 14.951945 
